#!OML:ASF Y:\EmotionMaleHayes\Project 1\Capture day 1\Session 1\Male1.ASF
:FULLY-SPECIFIED
:DEGREES
220
root 3.64238 15.4365 -0.722477 -242.968 75.706 -251.065
lowerback 19.8485 0.502292 -14.3426
upperback 4.28325 -2.0889 -4.94584
thorax -6.02115 -0.592346 3.18621
lowerneck -29.8949 -1.87954 -2.67092
upperneck 8.81749 -2.16196 5.21677
head 7.49903 -0.485134 1.90194
rclavicle 1.47101e-014 1.03368e-014
rhumerus -69.3498 14.5909 -99.7568
rradius 89.2511
rwrist -21.5341
rhand -31.642 -26.8837
rfingers 7.12502
rthumb -4.90302 -56.807
lclavicle 1.47101e-014 1.03368e-014
lhumerus -33.4304 -27.9168 93.3673
lradius 90.4091
lwrist 13.9608
lhand -37.2895 -37.9851
lfingers 7.12502
lthumb -10.3539 -8.26
rfemur -32.2049 -11.9003 5.13693
rtibia 66.2857
rfoot 175.077 4.87425
rtoes 14.2936
lfemur -12.2238 1.62849 -36.7221
ltibia 44.0282
lfoot -34.5251 2.53867
ltoes -15.2904
221
root 4.02068 15.4789 -0.702994 -240.375 75.7007 -248.413
lowerback 20.0057 0.173936 -14.2602
upperback 4.16545 -2.54567 -4.75245
thorax -6.16148 -0.805651 3.46432
lowerneck -29.8633 -1.49156 -2.25473
upperneck 8.8791 -1.71567 4.64136
head 7.48393 -0.321746 1.70362
rclavicle -1.8487e-014 -1.23246e-014
rhumerus -72.0335 14.0024 -99.5119
rradius 89.9006
rwrist -20.9013
rhand -30.477 -27.5784
rfingers 7.12502
rthumb -3.7781 -57.5246
lclavicle -1.8487e-014 -1.23246e-014
lhumerus -31.1621 -27.9045 93.362
lradius 91.6613
lwrist 12.29
lhand -37.1644 -38.4774
lfingers 7.12502
lthumb -10.2333 -8.74628
rfemur -35.0828 -12.7094 6.04173
rtibia 66.5129
rfoot 174.726 3.67759
rtoes 13.2173
lfemur -9.6114 1.60231 -35.9432
ltibia 42.0761
lfoot -34.2877 2.06484
ltoes -15.3269
222
root 4.41761 15.5315 -0.688133 -238.082 75.5207 -246.045
lowerback 19.9978 -0.212822 -14.37
upperback 4.0756 -3.07962 -4.54143
thorax -6.15324 -1.06268 3.88085
lowerneck -29.5853 -1.12261 -2.16072
upperneck 8.77528 -1.21832 4.35942
head 7.38575 -0.118438 1.66147
rclavicle -1.88845e-014 -4.49253e-014
rhumerus -74.812 13.9635 -99.7865
rradius 90.3042
rwrist -22.2366
rhand -31.763 -25.7361
rfingers 7.12502
rthumb -5.01986 -55.6566
lclavicle -1.88845e-014 -4.49253e-014
lhumerus -29.3688 -27.5769 93.5409
lradius 93.0773
lwrist 10.7485
lhand -36.9052 -38.7591
lfingers 7.12502
lthumb -9.98317 -9.01583
rfemur -37.5763 -13.4796 6.59929
rtibia 67.4316
rfoot 174.536 2.84962
rtoes 11.6137
lfemur -6.69288 1.20682 -35.4362
ltibia 39.6355
lfoot -33.7409 1.69736
ltoes -15.3223
223
root 4.84924 15.6059 -0.685213 -237.196 75.4607 -244.868
lowerback 19.8462 -0.571609 -14.533
upperback 4.09507 -3.54344 -4.36147
thorax -5.9488 -1.3011 4.26703
lowerneck -29.6516 -0.671193 -1.91803
upperneck 9.03733 -0.654691 3.92615
head 7.45994 0.110413 1.55699
rclavicle 4.77083e-015 -5.96354e-015
rhumerus -77.4864 14.1133 -99.8703
rradius 91.0026
rwrist -22.3885
rhand -31.1963 -26.0005
rfingers 7.12502
rthumb -4.47269 -55.9333
lclavicle 4.77083e-015 -5.96354e-015
lhumerus -27.9396 -27.0539 93.6705
lradius 94.6822
lwrist 9.62185
lhand -37.2695 -40.0355
lfingers 7.12502
lthumb -10.3346 -10.3094
rfemur -39.3307 -13.6881 6.89268
rtibia 69.1029
rfoot 174.513 2.14291
rtoes 11.7257
lfemur -3.07045 0.840573 -35.0373
ltibia 36.4585
lfoot -32.909 1.71111
ltoes -16.2768
224
root 5.28409 15.6947 -0.691828 -236.31 75.1989 -243.853
lowerback 19.5625 -1.0213 -14.6307
upperback 4.0555 -4.10419 -4.34202
thorax -5.73443 -1.58584 4.45331
lowerneck -30.1463 -0.195098 -1.36037
upperneck 9.8986 -0.171118 3.33072
head 7.80766 0.298053 1.34321
rclavicle 1.19271e-014 3.89618e-014
rhumerus -80.0025 14.2549 -100.146
rradius 91.4859
rwrist -22.5183
rhand -30.9426 -25.5612
rfingers 7.12502
rthumb -4.22772 -55.499
lclavicle 1.19271e-014 3.89618e-014
lhumerus -26.9571 -26.6486 93.7329
lradius 96.4783
lwrist 8.9162
lhand -37.7817 -40.8774
lfingers 7.12502
lthumb -10.8287 -11.1766
rfemur -41.0044 -13.9838 6.82866
rtibia 71.0357
rfoot 174.604 1.57358
rtoes 13.4252
lfemur 0.368184 0.0385438 -35.0955
ltibia 33.1989
lfoot -31.734 2.29579
ltoes -18.5713
225
root 5.72013 15.7976 -0.702825 -236.4 74.5357 -243.984
lowerback 19.101 -1.44278 -15.1946
upperback 3.98818 -4.68742 -4.43027
thorax -5.41463 -1.87856 4.76086
lowerneck -30.5338 0.278408 -0.844913
upperneck 10.7143 0.312242 2.82896
head 8.1335 0.491036 1.16853
rclavicle -3.67752e-014 -8.74653e-015
rhumerus -82.2179 14.487 -100.503
rradius 91.6881
rwrist -22.6747
rhand -30.9649 -24.8549
rfingers 7.12502
rthumb -4.24929 -54.7923
lclavicle -3.67752e-014 -8.74653e-015
lhumerus -26.0847 -26.4609 93.8033
lradius 98.1331
lwrist 8.7827
lhand -38.3024 -41.6685
lfingers 7.12502
lthumb -11.3309 -11.9946
rfemur -42.568 -14.3091 6.10305
rtibia 73.3285
rfoot 174.687 1.22943
rtoes 14.6671
lfemur 3.5294 -0.975199 -35.9235
ltibia 30.0655
lfoot -30.2137 3.01483
ltoes -21.3026
226
root 6.15984 15.913 -0.704023 -236.259 74.1175 -243.981
lowerback 18.8345 -1.85318 -15.599
upperback 3.65906 -5.31124 -4.45223
thorax -5.48576 -2.16102 5.07222
lowerneck -30.7032 0.738218 -0.491503
upperneck 11.6154 0.78279 2.62596
head 8.46455 0.701244 1.12177
rclavicle -1.37161e-014 6.36111e-015
rhumerus -84.7143 14.7777 -101.003
rradius 91.9982
rwrist -22.7559
rhand -31.1521 -24.244
rfingers 7.12502
rthumb -4.42998 -54.1777
lclavicle -1.37161e-014 6.36111e-015
lhumerus -25.558 -26.4636 93.8631
lradius 99.4894
lwrist 9.2148
lhand -38.8798 -42.4937
lfingers 7.12502
lthumb -11.8877 -12.8512
rfemur -43.9603 -14.3526 5.76128
rtibia 76.2802
rfoot 173.853 0.842051
rtoes 12.4926
lfemur 6.37092 -1.96577 -36.462
ltibia 27.2135
lfoot -28.2784 3.61299
ltoes -23.0913
227
root 6.60065 16.0382 -0.698488 -235.604 74.0177 -243.43
lowerback 18.691 -2.23329 -15.7807
upperback 3.24854 -5.89153 -4.29449
thorax -5.72039 -2.41446 5.45861
lowerneck -30.6084 1.21445 -0.197298
upperneck 12.476 1.31123 2.38362
head 8.74595 0.927912 1.07859
rclavicle -1.19271e-015 -8.90555e-014
rhumerus -87.2899 15.2064 -101.478
rradius 92.4109
rwrist -22.9394
rhand -31.293 -23.749
rfingers 7.12502
rthumb -4.56604 -53.6798
lclavicle -1.19271e-015 -8.90555e-014
lhumerus -25.3753 -26.5272 94.0775
lradius 100.902
lwrist 9.83047
lhand -39.6395 -43.0818
lfingers 7.12502
lthumb -12.6202 -13.4831
rfemur -45.0772 -14.2054 5.88529
rtibia 79.6051
rfoot 173.21 1.06842
rtoes 11.7112
lfemur 8.98853 -2.77368 -36.4896
ltibia 24.694
lfoot -25.7347 4.3669
ltoes -25.3947
228
root 7.0424 16.1653 -0.685389 -235.599 73.8126 -243.529
lowerback 18.5433 -2.5195 -16.2648
upperback 2.89549 -6.39017 -4.14128
thorax -5.86323 -2.62646 5.97999
lowerneck -30.6522 1.75817 0.478015
upperneck 13.2929 1.89317 1.61512
head 9.0455 1.13613 0.801127
rclavicle 2.90226e-014 6.75868e-014
rhumerus -89.6182 15.506 -101.893
rradius 92.8888
rwrist -23.3198
rhand -31.3847 -23.0239
rfingers 7.12502
rthumb -4.65462 -52.9527
lclavicle 2.90226e-014 6.75868e-014
lhumerus -25.2816 -26.6676 94.2928
lradius 102.436
lwrist 10.5442
lhand -40.2335 -43.5391
lfingers 7.12502
lthumb -13.1929 -13.9766
rfemur -46.0339 -13.9467 5.83965
rtibia 84.1976
rfoot 162.587 34.5719
rtoes 11.7937
lfemur 11.3502 -3.13305 -36.4841
ltibia 22.5436
lfoot -22.7087 4.67419
ltoes -26.8997
229
root 7.4876 16.2889 -0.666066 -235.989 73.8517 -244.088
lowerback 18.0783 -2.71714 -16.7843
upperback 2.70403 -6.68212 -3.90216
thorax -5.67187 -2.77386 6.5382
lowerneck -31.1128 2.30432 1.14049
upperneck 14.0748 2.48997 0.864088
head 9.40849 1.35343 0.539343
rclavicle -1.64991e-014 1.98785e-014
rhumerus -91.6781 15.6875 -102.076
rradius 93.6348
rwrist -23.4852
rhand -31.2916 -22.3886
rfingers 7.12502
rthumb -4.56474 -52.3194
lclavicle -1.64991e-014 1.98785e-014
lhumerus -24.9141 -26.9054 94.3029
lradius 103.912
lwrist 11.2932
lhand -40.6174 -44.0094
lfingers 7.12502
lthumb -13.5629 -14.4711
rfemur -46.8399 -13.3276 5.99968
rtibia 88.6018
rfoot 136.748 66.2453
rtoes 11.762
lfemur 13.3623 -3.00291 -36.0646
ltibia 20.7069
lfoot -19.3879 4.46652
ltoes -25.6459
230
root 7.93884 16.416 -0.649325 -236.213 74.3155 -244.415
lowerback 17.5267 -2.85658 -16.8712
upperback 2.57017 -6.79058 -3.57457
thorax -5.4455 -2.85268 6.91814
lowerneck -31.2934 2.55304 1.05173
upperneck 14.685 2.82575 0.970252
head 9.65288 1.51331 0.654972
rclavicle 4.90998e-014 7.87187e-014
rhumerus -93.5314 15.8116 -102.024
rradius 94.6502
rwrist -24.0511
rhand -30.9276 -22.4855
rfingers 7.12502
rthumb -4.2132 -52.4236
lclavicle 4.90998e-014 7.87187e-014
lhumerus -24.6637 -27.3048 94.2907
lradius 105.253
lwrist 12.0203
lhand -40.8886 -44.9543
lfingers 7.12502
lthumb -13.8242 -15.4337
rfemur -47.2287 -12.4241 6.53226
rtibia 89.114
rfoot 33.0112 68.3741
rtoes 11.5223
lfemur 15.2583 -2.57199 -35.0947
ltibia 19.0173
lfoot -15.7259 4.38442
ltoes -24.5679
231
root 8.39495 16.5491 -0.627933 -236.982 74.6698 -245.24
lowerback 17.1787 -2.93393 -17.1379
upperback 2.34439 -6.90657 -3.30508
thorax -5.41536 -2.90661 7.35289
lowerneck -31.5363 2.80596 0.96841
upperneck 15.4365 3.13478 1.20609
head 9.95761 1.67676 0.817206
rclavicle -3.20043e-014 3.57812e-014
rhumerus -95.337 15.9191 -102.105
rradius 95.3159
rwrist -24.2849
rhand -31.1309 -20.6266
rfingers 7.12502
rthumb -4.40953 -50.5606
lclavicle -3.20043e-014 3.57812e-014
lhumerus -24.9787 -27.6587 94.4196
lradius 106.578
lwrist 12.788
lhand -40.7217 -45.9773
lfingers 7.12502
lthumb -13.6634 -16.4457
rfemur -47.351 -11.4717 6.85589
rtibia 85.0449
rfoot 3.20833 36.8993
rtoes 11.6077
lfemur 17.0074 -1.94107 -34.1641
ltibia 17.567
lfoot -11.6923 4.37374
ltoes -24.5012
